
        <svg xmlns="http://www.w3.org/2000/svg" xmlns:xlink="http://www.w3.org/1999/xlink" version="1.1" width="3165.745856353591" height="969.6132596685084" viewBox="0 0 3165.745856353591 969.6132596685084">
			
			<g transform="scale(8.287292817679559) translate(10, 10)">
				<defs id="SvgjsDefs2866"/><g id="SvgjsG2867" featureKey="rootContainer" transform="matrix(1,0,0,1,0,0)" fill="#000"><rect y="0" height="1" width="1" opacity="0"/><rect y="92" width="362" height="5"/></g><g id="SvgjsG2868" featureKey="symbolFeature-0" transform="matrix(4.173797299110013,0,0,4.173797299110013,-0.08347595189067075,-1.2446288893408912)" fill="#000"><g xmlns="http://www.w3.org/2000/svg"><path d="M11.842,8.863c-0.853,0-5.144,0.04-5.921,0.814C5.787,9.812,5.709,9.999,5.709,10.19v5.966   c0,0.189,0.073,0.369,0.212,0.512c0.457,0.456,2.375,0.697,5.671,0.722v0.345l-2.609,0.38c-0.219,0.031-0.37,0.234-0.338,0.453   c0.031,0.219,0.237,0.37,0.453,0.338l2.895-0.421l2.895,0.421c0.02,0.003,0.039,0.005,0.059,0.005c0.195,0,0.366-0.144,0.395-0.343   c0.032-0.219-0.119-0.422-0.338-0.453l-2.609-0.38v-0.342c4.952-0.017,5.475-0.531,5.671-0.726   c0.137-0.137,0.212-0.318,0.212-0.512v-5.966c0-0.193-0.075-0.375-0.212-0.512C17.258,8.873,12.063,8.863,11.842,8.863z    M12.142,16.593c-3.341,0-5.375-0.248-5.632-0.438l-0.023-5.912c0.287-0.28,2.508-0.58,5.355-0.58c2.313,0,5.288,0.254,5.633,0.525   l0.022,5.911C17.307,16.284,15.963,16.593,12.142,16.593z"/><path d="M5.142,12.167c-3.073-0.01-4.184-0.271-4.321-0.342L0.787,6.392C1.058,6.15,3.016,5.891,5.498,5.891   c2.018,0,4.633,0.22,4.942,0.419v1.962c0,0.221,0.18,0.4,0.4,0.4s0.4-0.18,0.4-0.4V6.31c0-0.181-0.073-0.357-0.202-0.485   C10.324,5.111,5.99,5.09,5.498,5.09c-1.065,0-4.594,0.054-5.275,0.734C0.094,5.954,0.02,6.13,0.02,6.311v5.515   c0,0.181,0.071,0.352,0.201,0.485c0.177,0.176,0.645,0.644,4.919,0.657h0.001c0.221,0,0.399-0.179,0.4-0.399   C5.542,12.348,5.363,12.168,5.142,12.167z"/><path d="M5.071,13.136l-2.125,0.38c-0.218,0.039-0.362,0.246-0.323,0.464c0.034,0.193,0.203,0.33,0.394,0.33   c0.022,0,0.047-0.002,0.07-0.007l2.125-0.38c0.218-0.039,0.362-0.246,0.323-0.464C5.497,13.244,5.292,13.089,5.071,13.136z"/><path d="M18.502,5.09c-0.492,0-4.826,0.021-5.542,0.734c-0.128,0.128-0.201,0.305-0.201,0.485v1.962c0,0.221,0.18,0.4,0.4,0.4   s0.4-0.18,0.4-0.4l-0.038-1.877c0.348-0.284,2.963-0.504,4.98-0.504c2.481,0,4.439,0.259,4.677,0.42l0.035,5.433   c-0.174,0.153-1.298,0.414-4.403,0.424c-0.222,0.001-0.399,0.181-0.399,0.401c0.001,0.221,0.18,0.399,0.4,0.399h0.001   c4.322-0.014,4.789-0.481,4.968-0.66c0.128-0.131,0.199-0.302,0.199-0.482V6.311c0-0.181-0.074-0.357-0.202-0.486   C23.096,5.144,19.568,5.09,18.502,5.09z"/><path d="M21.053,13.516l-2.171-0.38c-0.223-0.045-0.426,0.107-0.463,0.324c-0.038,0.218,0.107,0.425,0.324,0.463l2.171,0.38   c0.023,0.005,0.047,0.007,0.069,0.007c0.191,0,0.36-0.137,0.394-0.331C21.416,13.761,21.27,13.554,21.053,13.516z"/></g></g><g id="SvgjsG2869" featureKey="nameFeature-0" transform="matrix(1.0105093060342452,0,0,1.0105093060342452,119.59579584994586,5.873888327589057)" fill="#000"><path d="M27.92 12 l-2.56 8.24 l-0.16 0 c0.52 -5.44 -2.52 -7.64 -7 -7.64 l-1.52 0 l0 24.72 c0 1.84 1.4 2.28 3.84 2.48 l0 0.2 l-13.16 0 l0 -0.2 c2.44 -0.2 3.84 -0.64 3.84 -2.48 l0 -24.72 c-5.96 0.04 -8.36 2.24 -10.64 7.64 l-0.16 0 l1.32 -8.24 l26.2 0 z M44.4 20.6 l6.16 0 l0 0.16 c-1.28 0.48 -2.24 1.16 -3.72 4.68 l-7.04 16.72 c-1.24 2.92 -2.44 5.84 -6.56 5.84 l-1.52 -1.76 c3.32 0 6 -1.2 7.32 -4.28 l0.08 -0.2 l-8.32 -18.44 l-1.48 -2.72 l9.4 0 l0 0.16 c-2 0.24 -3.6 1.2 -2.08 4.64 l4.8 10.96 l4.64 -10.96 c1.44 -3.44 -0.24 -4.16 -1.68 -4.64 l0 -0.16 z M63.64 20.36 c7.44 0 11.16 4.08 11.16 9.56 c0 6.4 -5 10.36 -11.72 10.36 c-1.48 0 -2.64 -0.24 -3.6 -0.52 l0 5.04 c0 2.16 0.36 2.92 2.16 3.72 l0 0.12 l-9.04 -1.32 l0 -0.12 c1.4 -0.36 1.8 -1.04 1.8 -3.04 l0 -21.32 c-0.56 -0.36 -1.6 -0.64 -2.64 -0.72 l0 -0.16 c4.24 -1.2 9.48 -1.6 11.88 -1.6 z M64.64 39.56 c3.2 0 4.96 -2.44 4.96 -7.52 c0 -5.44 -2.16 -11.04 -7.32 -11.04 c-1.32 0 -2.28 0.36 -2.8 0.52 l0 15.92 c1.56 1.24 3.24 2.12 5.16 2.12 z M88.64 20.36 c6.44 0 10.64 3.96 10.64 9.96 c0 5.88 -4.2 9.96 -10.64 9.96 s-10.64 -3.96 -10.64 -9.96 c0 -5.88 4.2 -9.96 10.64 -9.96 z M90.2 39.6 c2.88 0 4.2 -2.4 4.2 -6.2 c0 -5.36 -2.48 -12.36 -7.32 -12.36 c-2.88 0 -4.2 2.36 -4.2 6.24 c0 5.32 2.52 12.32 7.32 12.32 z M128.8 12 l-2.56 8.24 l-0.16 0 c0.52 -5.44 -2.52 -7.64 -7 -7.64 l-1.52 0 l0 24.72 c0 1.84 1.4 2.28 3.84 2.48 l0 0.2 l-13.16 0 l0 -0.2 c2.44 -0.2 3.84 -0.64 3.84 -2.48 l0 -24.72 c-5.96 0.04 -8.36 2.24 -10.64 7.64 l-0.16 0 l1.32 -8.24 l26.2 0 z M145.28000000000003 20.6 l6.16 0 l0 0.16 c-1.28 0.48 -2.24 1.16 -3.72 4.68 l-7.04 16.72 c-1.24 2.92 -2.44 5.84 -6.56 5.84 l-1.52 -1.76 c3.32 0 6 -1.2 7.32 -4.28 l0.08 -0.2 l-8.32 -18.44 l-1.48 -2.72 l9.4 0 l0 0.16 c-2 0.24 -3.6 1.2 -2.08 4.64 l4.8 10.96 l4.64 -10.96 c1.44 -3.44 -0.24 -4.16 -1.68 -4.64 l0 -0.16 z M164.52 20.36 c7.44 0 11.16 4.08 11.16 9.56 c0 6.4 -5 10.36 -11.72 10.36 c-1.48 0 -2.64 -0.24 -3.6 -0.52 l0 5.04 c0 2.16 0.36 2.92 2.16 3.72 l0 0.12 l-9.04 -1.32 l0 -0.12 c1.4 -0.36 1.8 -1.04 1.8 -3.04 l0 -21.32 c-0.56 -0.36 -1.6 -0.64 -2.64 -0.72 l0 -0.16 c4.24 -1.2 9.48 -1.6 11.88 -1.6 z M165.52 39.56 c3.2 0 4.96 -2.44 4.96 -7.52 c0 -5.44 -2.16 -11.04 -7.32 -11.04 c-1.32 0 -2.28 0.36 -2.8 0.52 l0 15.92 c1.56 1.24 3.24 2.12 5.16 2.12 z M198.12 36.08 l0.2 0.16 c-1.2 2.24 -4.44 4.04 -8.68 4.04 c-6.4 0 -10.76 -3.96 -10.76 -9.68 c0 -6.44 5.56 -10.24 11.52 -10.24 c8.64 0 9.36 8.52 4.24 8.52 l-10.56 0 c0.08 5.68 3.32 9.44 8.12 9.44 c1.92 0 4.68 -0.6 5.92 -2.24 z M189.08 21 c-2.72 0 -4.84 2.72 -5 7.2 l8.04 -0.08 c2.72 -0.04 1.6 -7.12 -3.04 -7.12 z"/></g><g id="SvgjsG2870" featureKey="sloganFeature-0" transform="matrix(1,0,0,1,104.79999980330467,59.28000020980835)" fill="#000"><path d="M13.96 6 l-1.28 4.12 l-0.08 0 c0.26 -2.72 -1.26 -3.82 -3.5 -3.82 l-0.76 0 l0 12.36 c0 0.92 0.7 1.14 1.92 1.24 l0 0.1 l-6.58 0 l0 -0.1 c1.22 -0.1 1.92 -0.32 1.92 -1.24 l0 -12.36 c-2.98 0.02 -4.18 1.12 -5.32 3.82 l-0.08 0 l0.66 -4.12 l13.1 0 z M26.84 15.74 l0.08 0.04 l-1.06 4.22 l-0.12 0.44 l-0.68 -0.44 l-10.6 0 l0 -0.1 c0.82 -0.3 1.52 -0.72 1.52 -1.44 l0 -11.32 c0 -0.72 -0.7 -0.94 -1.52 -1.04 l0 -0.1 l11 0 l0.74 3.52 l-0.08 0.04 c-1.52 -2.24 -2.3 -3.24 -4.88 -3.24 l-2.52 0 l0 6.52 l1.68 0 c2.48 0 3.42 -0.54 3.9 -2.38 l0 5.06 c-0.48 -1.82 -1.42 -2.36 -3.9 -2.36 l-1.68 0 l0 6.52 l2.64 0 c2.58 0 3.84 -1.26 5.48 -3.94 z M41.36 17.78 c-0.86 1.36 -2.62 2.5 -5.4 2.5 c-4.5 0 -7.84 -3.06 -7.84 -7.24 c0 -4.8 4.3 -7.32 8.42 -7.32 c2.58 0 4.2 0.98 5.12 2.1 l-2.9 3.9 l-0.06 -0.02 c1.04 -2.78 -0.22 -5.56 -3.28 -5.56 c-2.44 0 -4.32 1.82 -4.32 5.56 c0 4.08 2.5 7.56 6.22 7.56 c1.46 0 3.04 -0.52 3.9 -1.58 z M57.959999999999994 6.1 c-0.82 0.1 -1.52 0.32 -1.52 1.04 l0 11.72 c0 0.72 0.7 0.94 1.52 1.04 l0 0.1 l-5.78 0 l0 -0.1 c0.82 -0.1 1.52 -0.32 1.52 -1.04 l0 -5.6 l-6.88 0 l0 5.6 c0 0.72 0.7 0.94 1.52 1.04 l0 0.1 l-5.78 0 l0 -0.1 c0.82 -0.1 1.52 -0.32 1.52 -1.04 l0 -11.72 c0 -0.72 -0.7 -0.94 -1.52 -1.04 l0 -0.1 l5.78 0 l0 0.1 c-0.82 0.1 -1.52 0.32 -1.52 1.04 l0 5.78 l6.88 0 l0 -5.78 c0 -0.72 -0.7 -0.94 -1.52 -1.04 l0 -0.1 l5.78 0 l0 0.1 z M69.24 6 l3.42 0 l0 0.1 c-0.82 0.1 -1.52 0.32 -1.52 3.04 l0 7.54 c0 2.08 0.06 3.12 0.1 3.84 l-0.04 0.04 l-10.52 -12.5 l0 8.4 c0 2.72 0.7 3.34 1.52 3.44 l0 0.1 l-3.44 0 l0 -0.1 c0.82 -0.1 1.52 -0.32 1.52 -3.04 l0 -9.28 c-0.68 -0.8 -1.18 -1.26 -1.82 -1.58 l4.02 0 c0.12 0.2 0.32 0.42 0.6 0.84 l7.68 9.06 l0 -6.36 c0 -2.72 -0.7 -3.34 -1.52 -3.44 l0 -0.1 z M81.58 5.720000000000001 c4.34 0 7.7 2.78 7.7 7.28 s-3.36 7.28 -7.7 7.28 c-4.36 0 -7.72 -2.78 -7.72 -7.28 s3.36 -7.28 7.72 -7.28 z M82.41999999999999 19.92 c2.4 0 3.96 -2.28 3.96 -5.6 c0 -3.98 -2.34 -8.24 -5.66 -8.24 c-2.4 0 -3.96 2.26 -3.96 5.58 c0 4 2.34 8.26 5.66 8.26 z M102.41999999999999 15.879999999999999 l0.08 0.04 l-1.04 4.08 l-0.12 0.44 l-0.68 -0.44 l-10.18 0 l0 -0.1 c0.82 -0.3 1.52 -1.08 1.52 -2.14 l0 -10.62 c0 -0.72 -0.7 -0.94 -1.52 -1.04 l0 -0.1 l5.98 0 l0 0.1 c-1.02 0.1 -1.72 0.32 -1.72 1.04 l0 12.54 l1.54 0 c3.38 0 4.34 -1.4 6.14 -3.8 z M111.42 5.720000000000001 c4.34 0 7.7 2.78 7.7 7.28 s-3.36 7.28 -7.7 7.28 c-4.36 0 -7.72 -2.78 -7.72 -7.28 s3.36 -7.28 7.72 -7.28 z M112.25999999999999 19.92 c2.4 0 3.96 -2.28 3.96 -5.6 c0 -3.98 -2.34 -8.24 -5.66 -8.24 c-2.4 0 -3.96 2.26 -3.96 5.58 c0 4 2.34 8.26 5.66 8.26 z M136.5 13.96 c-0.82 0.1 -1.52 0.34 -1.52 1.06 l0 3.84 c0 0.72 0.7 0.94 1.52 1.04 l0 0.1 l-4.52 0 l0.2 -1.32 c-0.94 0.94 -2.32 1.6 -4.1 1.6 c-3.74 0 -7.16 -3.06 -7.16 -7.24 c0 -4.8 4.3 -7.32 8.42 -7.32 c2.62 0 4.44 0.98 5.36 2.1 l-2.9 3.88 l-0.06 -0.02 c1.04 -2.76 -0.48 -5.5 -3.6 -5.5 c-2.4 0 -4.24 1.78 -4.24 5.52 c0 4.08 2.48 7.56 5.88 7.56 c1.16 0 1.92 -0.38 2.46 -0.94 l0 -3.3 c0 -0.72 -0.52 -0.82 -3.88 -0.92 l0.4 -0.24 l7.74 0 l0 0.1 z M148.07999999999998 6 l4.42 0 l0 0.08 c-1.1 0.24 -1.92 0.56 -2.78 1.96 l-3.62 5.98 l0 4.84 c0 0.72 0.7 0.94 1.72 1.04 l0 0.1 l-6.18 0 l0 -0.1 c1.02 -0.1 1.72 -0.32 1.72 -1.04 l0 -4.44 l-4.24 -6.6 c-0.76 -1.16 -1.46 -1.62 -2.12 -1.74 l0 -0.08 l4.08 0 l1.08 1.82 l3.7 5.82 l3.36 -5.62 c0.86 -1.42 0.16 -1.74 -1.14 -1.94 l0 -0.08 z M170.94 17.78 c-0.86 1.36 -2.62 2.5 -5.4 2.5 c-4.5 0 -7.84 -3.06 -7.84 -7.24 c0 -4.8 4.3 -7.32 8.42 -7.32 c2.58 0 4.2 0.98 5.12 2.1 l-2.9 3.9 l-0.06 -0.02 c1.04 -2.78 -0.22 -5.56 -3.28 -5.56 c-2.44 0 -4.32 1.82 -4.32 5.56 c0 4.08 2.5 7.56 6.22 7.56 c1.46 0 3.04 -0.52 3.9 -1.58 z M184.51999999999998 15.74 l0.08 0.04 l-1.06 4.22 l-0.12 0.44 l-0.68 -0.44 l-10.6 0 l0 -0.1 c0.82 -0.3 1.52 -0.72 1.52 -1.44 l0 -11.32 c0 -0.72 -0.7 -0.94 -1.52 -1.04 l0 -0.1 l11 0 l0.74 3.52 l-0.08 0.04 c-1.52 -2.24 -2.3 -3.24 -4.88 -3.24 l-2.52 0 l0 6.52 l1.68 0 c2.48 0 3.42 -0.54 3.9 -2.38 l0 5.06 c-0.48 -1.82 -1.42 -2.36 -3.9 -2.36 l-1.68 0 l0 6.52 l2.64 0 c2.58 0 3.84 -1.26 5.48 -3.94 z M195.87999999999997 6 l3.42 0 l0 0.1 c-0.82 0.1 -1.52 0.32 -1.52 3.04 l0 7.54 c0 2.08 0.06 3.12 0.1 3.84 l-0.04 0.04 l-10.52 -12.5 l0 8.4 c0 2.72 0.7 3.34 1.52 3.44 l0 0.1 l-3.44 0 l0 -0.1 c0.82 -0.1 1.52 -0.32 1.52 -3.04 l0 -9.28 c-0.68 -0.8 -1.18 -1.26 -1.82 -1.58 l4.02 0 c0.12 0.2 0.32 0.42 0.6 0.84 l7.68 9.06 l0 -6.36 c0 -2.72 -0.7 -3.34 -1.52 -3.44 l0 -0.1 z M213.55999999999997 6 l-1.28 4.12 l-0.08 0 c0.26 -2.72 -1.26 -3.82 -3.5 -3.82 l-0.76 0 l0 12.36 c0 0.92 0.7 1.14 1.92 1.24 l0 0.1 l-6.58 0 l0 -0.1 c1.22 -0.1 1.92 -0.32 1.92 -1.24 l0 -12.36 c-2.98 0.02 -4.18 1.12 -5.32 3.82 l-0.08 0 l0.66 -4.12 l13.1 0 z M226.43999999999997 15.74 l0.08 0.04 l-1.06 4.22 l-0.12 0.44 l-0.68 -0.44 l-10.6 0 l0 -0.1 c0.82 -0.3 1.52 -0.72 1.52 -1.44 l0 -11.32 c0 -0.72 -0.7 -0.94 -1.52 -1.04 l0 -0.1 l11 0 l0.74 3.52 l-0.08 0.04 c-1.52 -2.24 -2.3 -3.24 -4.88 -3.24 l-2.52 0 l0 6.52 l1.68 0 c2.48 0 3.42 -0.54 3.9 -2.38 l0 5.06 c-0.48 -1.82 -1.42 -2.36 -3.9 -2.36 l-1.68 0 l0 6.52 l2.64 0 c2.58 0 3.84 -1.26 5.48 -3.94 z M238.81999999999996 17.36 c1.18 1.62 1.94 2.06 2.98 2.58 l0 0.06 l-4.32 0 l0 -0.34 l-3.76 -5.3 l-2.34 0 l0 4.5 c0 0.72 0.7 0.94 1.52 1.04 l0 0.1 l-5.78 0 l0 -0.1 c0.82 -0.1 1.52 -0.32 1.52 -1.04 l0 -11.72 c0 -0.72 -0.7 -0.94 -1.52 -1.04 l0 -0.1 l7.54 0 c3.58 0 5.64 1.18 5.64 3.78 c0 2 -1.48 3.6 -3.9 4.26 z M231.37999999999997 6.359999999999999 l0 7.22 c1.04 0.3 2.14 0.46 3.18 0.46 c2.02 0 3.04 -0.66 3.04 -3.44 c0 -2.12 -0.6 -4.24 -4.02 -4.24 l-2.2 0 z"/></g>
			</g>
		</svg>
	